<?xml version="1.0" encoding="UTF-8"?>
<svg version="1.1" viewBox="0 0 2048 995" width="1280" height="1280" xmlns="http://www.w3.org/2000/svg">
<path transform="translate(21,19)" d="m0 0h170l26 2 21 5 12 4 16 8 13 10 10 10 9 13 9 17 6 18 4 18 2 16 1 19 1 156v161l-3 31-5 24-6 20-8 18-8 13-8 10-12 12-13 8-14 7-17 5-24 4-32 1h-150l-1-1v-608zm122 107v395h31l11-4 7-6 4-7 2-10v-330l-2-18-4-10-7-6-8-3-6-1z" fill="#181818"/>
<path transform="translate(715,18)" d="m0 0h29l51 1 1 1 6 61 9 83 13 121 10 92 5 48v7h2v-9l7-70 6-65 11-117 9-96 5-51 1-5 13-1h96l7 1-1 14-9 71-8 64-10 84-18 145-9 73-17 136-2 18-2 5h-165l-2-7-14-114-18-146-17-138-11-90-13-105v-10z" fill="#191919"/>
<path transform="translate(389,19)" d="m0 0h239l4 1v116l-1 1h-119v119h115v114h-115l1 140h124l3 3v112l-1 4h-249l-2-1v-608z" fill="#181818"/>
<path transform="translate(21,712)" d="m0 0h1983v263h-1983l-1-2v-260zm12 5-7 1v252h1972l1-14v-235l-1-3-35-1z" fill="#080808"/>
<path transform="translate(1384,15)" d="m0 0h204l18 2 15 4 14 6 12 8 11 10 10 14 8 15 6 19 5 25 3 31 1 18v41l-2 23-4 20-5 15-8 16-7 9-11 11-13 8 15 9 10 10 8 14 4 11 4 21 1 11v104l-1 142-1 1h-127l-1-15v-202l-1-40-3-10-5-5-13-4-14-2-1 278-131 1-1-1zm9 9v600h114l1-190v-87h14l16 2 10 4 7 6 4 8 2 10 1 14 1 233h110l1-66v-177l-3-19-6-18-7-11-10-9-12-6-18-5-5-1 3-2 19-7 12-7 10-9 7-8 8-16 4-12 4-23 2-20v-47l-3-35-4-26-5-17-8-18-9-12-11-11-11-7-11-5-15-4-15-2z" fill="#171717"/>
<path transform="translate(1716,15)" d="m0 0h130l11 66 16 95 2 12v7h2l1-12 28-168h130l-1 9-19 79-14 59-13 55-11 46-18 76-9 37-11 46-1 5-1 206h-124l-1-207-9-38-13-55-14-59-20-84-17-71-21-89-3-12zm11 9 2 12 10 41 27 114 11 46 19 80 14 59 11 46 1 6 1 196h106l1-197 11-47 34-142 12-50 13-55 22-93 3-12v-4h-111l-4 20-9 56-20 120v6h-10l-1-12-13-79-11-67-7-43-1-1z" fill="#181818"/>
<path transform="translate(1027,15)" d="m0 0h187l24 3 20 6 18 8 12 9 9 8 8 10 6 10 8 20 5 21 3 22 1 20v37l-2 27-4 18-6 16-7 12-10 12-12 9-11 6 3 2 13 8 10 9 8 9 10 19 6 18 6 29 2 18 1 16v36l-2 30-4 29-6 27-6 18-8 18-8 13-8 10-8 8-16 11-12 6-16 5-13 3-19 2h-182l-1-3v-614zm8 9v599l1 1h176l22-3 15-4 17-8 11-8 10-9 10-14 8-16 6-15 7-26 4-20 3-28 1-16v-45l-2-25-4-22-6-20-7-16-7-10-7-8-11-8-12-6-15-5-7-2 4-2 24-8 10-7 11-10 7-10 7-14 5-19 2-13 1-18v-37l-2-28-4-24-6-18-8-16-7-9-10-10-14-9-11-5-13-4-20-4-10-1z" fill="#181818"/>
<path transform="translate(21,712)" d="m0 0h1983v1l-3 1 1 16v16l-2 2v-32l-1 5-1-3h-1972v252h-1l-1-249-1 58-1 2-1 192h-1v-260z" fill="#191919"/>
<path transform="translate(1689,800)" d="m0 0h19l1 1 1 34 5-1 12-13 9-11 8-9 2-1h25l-2 4-10 10-7 8-11 11-7 8-2 2 1 4 9 10 9 11 14 15 7 8 4 5v2h-25l-7-6-7-9-14-17-8-10-6-2v43l-1 1h-19l-1-97z" fill="#181818"/>
<path transform="translate(1316,800)" d="m0 0h22l3 5 15 42 11 30 7 19v2h-22l-4-10-3-8h-33l-3 1-6 16-1 1h-21l3-11 19-53 12-33zm10 24-9 27-2 7v4h25l-4-16-7-21z" fill="#181818"/>
<path transform="translate(415,800)" d="m0 0h17l3 1 1 66 3 6 6 5 6 2h8l10-5 3-4 1-3 1-12v-55l1-1h19l1 1v70l-3 9-7 9-10 6-10 3-13 1-12-2-14-7-7-8-4-9z" fill="#191919"/>
<path transform="translate(1520,799)" d="m0 0h19l11 4 10 6 10 10 3 5v2l-16 8-3-1-7-8-9-4h-18l-8 4-7 7-4 11v13l4 10 7 7 9 4 11 1 13-4 6-5 4-5 5 1 13 7-2 5-7 8-10 8-14 5-7 1h-8l-16-4-11-7-9-9-7-14-2-6v-19l3-10 6-11 8-9 13-8z" fill="#181818"/>
<path transform="translate(965,799)" d="m0 0h16l12 5 8 7-1 4-10 9-5-1-6-4-10-1-4 2-2 7 3 5 4 3 18 7 10 6 6 7 3 7v16l-4 8-7 7-8 4-10 2h-9l-11-3-8-4-7-6-5-7 1-3 15-9 5 5v2l4 2 8 3 9-1 5-3 1-2v-6l-4-5-12-5-16-7-7-6-4-7-1-4v-12l4-10 7-7 8-4z" fill="#181818"/>
<path transform="translate(1146,340)" d="m0 0h29l13 2 10 5 7 8 5 11 3 13 1 8v99l-3 13-4 8-8 9-8 5-9 3-13 2h-17l-6-1zm9 8-1 10v156l1 3h18l13-4 9-6 5-6 4-10 1-5v-101l-3-15-4-10-4-5-9-5-11-2z" fill="#191919"/>
<path transform="translate(245,800)" d="m0 0h57l1 1v17l-1 1h-36v20l31 1v18h-31v14l-1 26h-20z" fill="#181818"/>
<path transform="translate(1161,108)" d="m0 0h12l11 1 10 4 6 5 4 8 2 9v85l-4 16-5 8-7 6-10 3h-34v-144zm7 9-13 1-1 11v112l1 3h25l8-3 4-5 4-11 1-6 1-16v-52l-1-18-4-9-7-5-14-2z" fill="#191919"/>
<path transform="translate(1112,800)" d="m0 0h69l1 1v17l-1 1h-24v79h-20v-79h-24l-1-1z" fill="#191919"/>
<path transform="translate(1508,128)" d="m0 0h41l10 4 7 8 3 9 2 11 1 12v28l-2 18-4 13-4 8-7 7-7 3h-40zm10 8-1 1v103l1 1h25l8-3 6-8 4-12 2-17v-30l-2-19-3-8-5-5-4-2-6-1z" fill="#191919"/>
<path transform="translate(616,800)" d="m0 0h19l1 1v79h32v17l-51 1-2-1v-96z" fill="#1B1B1B"/>
<path transform="translate(780,800)" d="m0 0h18l2 1 1 79 3-1h15l14 1v17l-3 1h-50z" fill="#181818"/>
<path transform="translate(1959,334)" d="m0 0h1l-1 8-14 59-6 26-1 206h-124l-1-207-9-38v-6h2l9 37 1 5 1 206 119 1-1-33v-160l2-17 6-25 9-37 4-17z" fill="#0A0A0A"/>
<path transform="translate(1645,38)" d="m0 0 4 2 6 5 10 13 9 17 6 20 4 18 2 15 2 28v60l-2 22-5 19-6 16-5 9-1 4-7 8-6 5-4 2-5 3-5-2 4-4 8-6 8-9 3-6 2-5 6-14 4-17 2-13 2-2 2-19v-48l-3-34-4-25-8-24-9-17-11-13-4-5z" fill="#181818"/>
<path transform="translate(1602,18)" d="m0 0 13 1 16 6 15 9 12 11 10 14 8 15 6 19 5 25 3 31 1 18v41l-2 23-4 20-5 15-9 18h-2l2-5 7-16 5-16 2-9 2-22v-60l-2-28-4-25-6-22-5-12-6-11-8-10-5-6-4-3-2 1 2 4 10 11 7 11 7 15 6 19 4 25 3 34v48l-3 25h-1v-13l1-11v-47l-3-35-4-26-5-17-8-18-9-12-10-10-11-7-11-5-4-2v-2l12 2h3l-12-5-17-4z" fill="#070707"/>
<path transform="translate(1231,19)" d="m0 0h11l21 7 16 8 10 8 8 7 8 10 6 10 8 20 5 21 1 10h-2l-5-22-7-21-8-15-8-10-9-9-1 2 3 1 2 6 8 9 6 10 6 12 5 15 2 9-1 9h-1l-4-20-7-19-8-14-9-10-9-8-14-8-16-6-24-5-17-2-173-1v-1l12-1h149l23 1 28 5 13 4 4-1 3 1-18-7-17-4z" fill="#050505"/>
<path transform="translate(1792,303)" d="m0 0 2 2 9 37 9 38 10 42 1 6v195l-2 3-1-1-1-198-4-19-12-50-7-33-4-18z" fill="#080808"/>
<path transform="translate(1678,367)" d="m0 0h2l2 8 1 11v104l-1 142-1 1h-127v-2h126l-1-29 1-122v-80l-2-27z" fill="#090909"/>
<path transform="translate(1508,128)" d="m0 0 3 1v118h24l12-1 8-4 5-6 4-9 4-16v-49l-4-17-4-8-8-5-7-2v-1h8l8 5 5 6 3 9 2 11 1 12v28l-2 18-4 13-4 8-7 7-7 3h-40z" fill="#070707"/>
<path transform="translate(734,455)" d="m0 0h2l9 74 7 56 4 36 1 6 35-1h126l2-13 2-1v12l-2 5h-165l-2-7-14-114-5-41z" fill="#070707"/>
<path transform="translate(1804,382)" d="m0 0h2l9 37 1 5 1 206 105 1v1l-61 1h-47l-1-207-9-38z" fill="#0C0C0C"/>
<path transform="translate(1906,15)" d="m0 0h130l-1 9-2 5-1-4 2-8h-126l-3 24-11 65-8 49-6 36-2 2v-10l25-150z" fill="#070707"/>
<path transform="translate(1248,288)" d="m0 0h7v2l11 3 16 7 8 4 3 5 10 10 9 15 6 15 5 18 4 25 1 9v64l-3 32-5 26-3 8h-1l1-10 4-20 3-28 1-16v-45l-2-25-4-22-6-20-7-16-7-10-6-7-11-8-12-6-15-5-10-3z" fill="#060606"/>
<path transform="translate(1515,134)" d="m0 0h32l7 3 5 5 4 8 2 13v45l-3 15-5 12-7 6-4 1 1-3 6-4 5-10 3-13 1-11v-30l-2-19-3-8-5-5-9-2h-25v103l27 1v2h-30z" fill="#090909"/>
<path transform="translate(1507,347)" d="m0 0h3v277l-2-1-1-189z" fill="#050505"/>
<path transform="translate(1734,87)" d="m0 0 2 3 6 24 13 53 10 41 16 69 12 53-1 4-2-5-20-84-14-59-16-67-6-26z" fill="#060606"/>
<path transform="translate(1155,346)" d="m0 0h24l10 3 9 7 5 9 3 13 1 8 1 20v52l-1 26-2 11-5 10-9 8-13 5-12 2h-11l-1-2 16-1 16-5 9-6 4-5 4-10 1-5v-101l-3-15-4-10-5-5-7-4-11-2-19-1z" fill="#090909"/>
<path transform="translate(780,800)" d="m0 0h18l2 1v79h-2l-1-77h-15v92h50v2l-2 1h-50z" fill="#050505"/>
<path transform="translate(1689,800)" d="m0 0h19l1 1v35h-2v-34h-16l1 47v45l15 2v-42l2-2h5l10 11 11 14v3l-8-9-12-15-6-2v43l-1 1h-19l-1-97z" fill="#030303"/>
<path transform="translate(1537,349)" d="m0 0 7 1 9 6 6 8 3 13v247h-1l-1-56-1-189-3-13-6-9-13-7z" fill="#010101"/>
<path transform="translate(1664,277)" d="m0 0 2 1-7 10-8 8-8 5 4 2 7-5h2l-2 4-11 7-5-1 3-2-5-1-13 5v2l18 6 10 6 10 10 8 16 4 12 3 19 1 10v61l-2 1-1-66-4-25-6-18-7-11-9-8-12-6-18-5-7-2 2-2 20-7 11-6 9-7 7-7z" fill="#030303"/>
<path transform="translate(1732,54)" d="m0 0h2l4 14 9 39 17 71 10 42 12 51v5l-2-3-7-26-5-22-9-36-7-30-7-29-11-48-6-26z" fill="#070707"/>
<path transform="translate(415,800)" d="m0 0h17l3 1-1 59h-1v-57h-9l-7-1 1 69 3 9 7 8 12 6 10 2h11l14-4 9-6 6-7 2-7 1-48h1v52l-6 10-9 7-10 4-11 2-14-1-11-4-9-6-7-9-2-6z" fill="#030303"/>
<path transform="translate(1915,21)" d="m0 0h111l2 1-1 8-8 32-6 26h-2l1-10 13-54h-112v-2z" fill="#090909"/>
<path transform="translate(864,197)" d="m0 0h1l-1 21-10 100-5 57-4 37-2 1v-9l6-64 12-127 1-12z" fill="#070707"/>
<path transform="translate(1216,629)" d="m0 0h8l-1 2-3 1-11 1h-182v-2l63-1h110z" fill="#010101"/>
<path transform="translate(246,615)" d="m0 0h3v2l-18 6-20 4-8 1-32 1h-150l1-3h157l23-1 19-3 16-4z" fill="#0C0C0C"/>
<path transform="translate(1959,307)" d="m0 0 1 3-10 42-13 54-4 16-1 7-1 169h-1v-176l17-71 10-42z" fill="#030303"/>
<path transform="translate(616,800)" d="m0 0h19v2h-17v93h50v2l-51 1-2-1v-96z" fill="#080808"/>
<path transform="translate(1684,106)" d="m0 0h1l3 20 2 23 1 18v41l-2 23-4 20-5 15-9 18h-2l2-5 7-16 5-16 2-9 2-22v-60l-2-28-2-18z" fill="#090909"/>
<path transform="translate(389,626)" d="m0 0h145l103 1v1l-247 1z" fill="#010101"/>
<path transform="translate(793,19)" d="m0 0 3 1 6 61 9 83 2 20v14h-1l-3-24-15-140z" fill="#070707"/>
<path transform="translate(965,799)" d="m0 0h16l12 5 8 7-1 4-10 9-5-1v-2h5l7-7-1-4-10-6-6-2h-15l-12 6-5 6-3 7v13l4 8 7 6 25 11 5 3 3 5v7l-5 5-4 2h-12l-6-3 3-1 6 2 9-1 5-3 1-2v-6l-4-5-12-5-16-7-7-6-4-7-1-4v-12l4-10 7-7 8-4z" fill="#070707"/>
<path transform="translate(753,612)" d="m0 0h2l2 15 35-1h126l2-13 2-1v12l-2 5h-165l-2-7z" fill="#0B0B0B"/>
<path transform="translate(1316,800)" d="m0 0h22l1 4-3-1-19-1-3 11-10 26-7 20-9 24-4 13 17-1 6-16 1-1h38v1l-34 1-3 1-6 16-1 1h-21l3-11 19-53 12-33z" fill="#090909"/>
<path transform="translate(1545,129)" d="m0 0h8l8 5 5 6 3 9 2 11 1 12v28l-2 18-4 13-4 8-7 7-7 3-4-1 11-6 5-6 4-9 4-16v-49l-4-17-4-8-8-5-7-2z" fill="#070707"/>
<path transform="translate(1657,57)" d="m0 0 5 5 9 19 6 19 4 25 3 34v48l-3 25h-1v-13l1-11v-47l-3-35-4-26-5-17-8-18-4-5z" fill="#070707"/>
<path transform="translate(1274,291)" d="m0 0 7 1 11 7 10 9 8 9 10 19 6 18 6 29 2 18v24h-1l-2-26-4-28-6-23-7-17-7-12-9-11-13-10-11-6z" fill="#070707"/>
<path transform="translate(1325,392)" d="m0 0h2l1 9v64l-3 32-5 26-3 8h-1l1-10 4-20 3-28 1-16z" fill="#040404"/>
<path transform="translate(943,435)" d="m0 0h1v11l-18 145-2 6h-1l1-16 10-79z" fill="#080808"/>
<path transform="translate(680,19)" d="m0 0h2l7 56 5 43 4 33v10l-2-2-8-64-8-66z" fill="#060606"/>
<path transform="translate(212,22)" d="m0 0h10l23 6 16 7 13 9 10 9 8 9 9 14 7 15 5 15 2 8v5l-2-3-9-27-10-19-9-12-11-11-18-11-18-7-20-5-6-1z" fill="#070707"/>
<path transform="translate(1317,120)" d="m0 0h2l2 23v53l-2 20-4 17-5 14-4 7-3 1 2-5 6-14 4-16 2-13 1-18v-37l-1-19z" fill="#070707"/>
<path transform="translate(994,19)" d="m0 0h2l-1 14-9 71-6 49-2 7h-1l1-15 8-67z" fill="#080808"/>
<path transform="translate(1400,21)" d="m0 0h173l21 1 17 3 1 2h-7l-22-3-191-1v-1z" fill="#010101"/>
<path transform="translate(1906,15)" d="m0 0h130l-1 9-2 5-1-4 2-8-128 1z" fill="#0C0C0C"/>
<path transform="translate(1520,799)" d="m0 0h19l11 4 10 6 10 10 3 5v2l-16 8-3-1-7-8-7-4 2-1 8 5 6 6 6-2 7-4-2-5-9-9-10-6-9-3h-19l-11 4-11 7-8 9-5 9-1-3 5-9 8-9 13-8z" fill="#060606"/>
<path transform="translate(1385,630)" d="m0 0h83l48 1v2l-131 1z" fill="#030303"/>
<path transform="translate(1548,135)" d="m0 0 5 1 5 4 5 10 2 13v45l-3 15-5 12-7 6-4 1 1-3 6-4 5-10 3-13 1-11v-30l-2-19-3-8-5-5-9-2v-1z" fill="#060606"/>
<path transform="translate(245,800)" d="m0 0h57l1 1v17l-1 1h-36l-1 22h-1v-24h37l-1-2v-13h-54v9h-1z" fill="#0D0D0D"/>
<path transform="translate(475,800)" d="m0 0h19v3h-15l-2-1v61l-2 9-7 7-7 3h-12v-1l13-2 8-5 3-6 1-12v-55z" fill="#090909"/>
<path transform="translate(1792,303)" d="m0 0 2 2 9 37 9 38 8 34v3l-3-1-6-25-9-38-6-28-4-18z" fill="#060606"/>
<path transform="translate(1112,800)" d="m0 0h69l1 1v17h-24v-1h21v-14l-65-1v15h19v1h-21z" fill="#090909"/>
<path transform="translate(875,82)" d="m0 0h1v10l-6 63-3 30-3 3 1-17 8-84z" fill="#070707"/>
<path transform="translate(2024,60)" d="m0 0h1l-1 10-22 92-6 25-2 1 1-8 12-52 7-29 9-36z" fill="#080808"/>
<path transform="translate(493,824)" d="m0 0h1v52l-6 10-9 7-10 4-11 2-14-1-11-4-9-6-7-9-2-9 3 1 3 9 7 8 12 6 10 2h11l14-4 9-6 6-7 2-7z" fill="#080808"/>
<path transform="translate(1503,831)" d="m0 0 1 3-3 9v13l4 10 7 7 9 4 11 1 13-4 6-5 4-5 5 1 13 7-2 5-2 3h-2l2-7-13-6-8 8-8 4-3 1h-15l-10-4-9-8-4-8-1-4v-14l4-10z" fill="#0A0A0A"/>
<path transform="translate(1344,818)" d="m0 0 3 3 9 26 11 30 7 19v2h-22l-2-4v-5l2 3 1 3h17l-13-37-13-38z" fill="#070707"/>
<path transform="translate(1727,21)" d="m0 0h102l11 1 3 15v6l-2-3-2-8v-9h-113z" fill="#010101"/>
<path transform="translate(1137,818)" d="m0 0h2v77h14l4 1v2h-20z" fill="#030303"/>
<path transform="translate(1732,848)" d="m0 0 4 2 9 11 12 13 7 8 9 10 3 4v2h-25l-7-6-4-6 1-2 8 10 2 1h15l5-1-14-15-7-8-18-21z" fill="#090909"/>
<path transform="translate(1216,629)" d="m0 0h8l-1 2-3 1-11 1h-85v-1l25-2h51z" fill="#080808"/>
<path transform="translate(1959,334)" d="m0 0h1l-1 8-14 59-6 26h-2l1-10 6-25 8-33 4-17z" fill="#070707"/>
<path transform="translate(265,855)" d="m0 0h31l1 3h-31v14l-1 25h-19v-2h17v-14l1-25z" fill="#090909"/>
<path transform="translate(976,168)" d="m0 0h1l-1 17-9 74-2 3 1-17 8-68 1-8z" fill="#080808"/>
<path transform="translate(1746,800)" d="m0 0h25l-2 4-10 10-7 8h-2l2-4 10-10 4-5h-18l-5 3-11 12-9 10-7 8-2-1 13-14 9-11 8-9z" fill="#090909"/>
<path transform="translate(1978,224)" d="m0 0h1l-1 10-17 72h-2l1-10 17-71z" fill="#070707"/>
<path transform="translate(1481,860)" d="m0 0h2l4 11 8 11 7 6 10 5 11 3h13l13-4 9-5 3-1v2l-9 6-12 4-7 1h-8l-16-4-11-7-9-9-7-14z" fill="#080808"/>
<path transform="translate(1198,136)" d="m0 0 2 1v75l-2 6h-1z" fill="#050505"/>
<path transform="translate(1155,346)" d="m0 0h24l10 3 9 7 5 9 3 13v8l-2-1-3-15-4-10-5-5-7-4-11-2-19-1z" fill="#050505"/>
<path transform="translate(1207,502)" d="m0 0 1 3-6 8-9 7-11 4-13 2h-17l-6-1 1-3 18 1 15-2 11-4 9-6 6-7z" fill="#070707"/>
<path transform="translate(797,801)" d="m0 0h3v79h-2z" fill="#010101"/>
<path transform="translate(1817,630)" d="m0 0 105 1v1l-61 1h-46v-2z" fill="#010101"/>
<path transform="translate(1678,367)" d="m0 0h2l2 8v105h-1l-1-80-2-27z" fill="#020202"/>
<path transform="translate(1323,529)" d="m0 0h1l-1 10-6 18-8 18-8 13-8 10-3 1 2-4 8-11 8-14 7-16 7-21z" fill="#070707"/>
<path transform="translate(1891,153)" d="m0 0h1l-1 13-10 60h-5l2-2 10-57 2-13z" fill="#080808"/>
<path transform="translate(1316,532)" d="m0 0 1 2-5 16-7 18-8 14-9 12-4 3-2-1 8-9 9-14 9-20 6-20z" fill="#070707"/>
<path transform="translate(1203,223)" d="m0 0h1v7l-5 12-7 7-7 3-5 1h-34v-2l34-1 9-3 7-6 5-11z" fill="#050505"/>
<path transform="translate(311,529)" d="m0 0h1l-1 9-6 18-8 16-6 10-8 10-6 6-2-1 9-10 12-19 8-17z" fill="#090909"/>
<path transform="translate(1146,340)" d="m0 0h29l13 2 10 5 7 8 4 8-1 4-6-11-5-6-7-4-6-2-7-1-31-1z" fill="#090909"/>
<path transform="translate(1907,17)" d="m0 0 1 3-7 45-3 17-3 3 2-16 8-49z" fill="#060606"/>
<path transform="translate(946,839)" d="m0 0 5 5 9 6 21 9 5 3 3 5v7l-5 5-4 2h-12l-6-3 3-1 6 2 9-1 5-3 1-2v-6l-4-5-12-5-16-7-7-6z" fill="#080808"/>
<path transform="translate(1326,468)" d="m0 0h1v10l-3 25-5 24-2 4h-1l1-10 4-20 3-28z" fill="#070707"/>
<path transform="translate(246,615)" d="m0 0h3v2l-18 6-20 4-8 1h-24l1-2 22-1 19-3 16-4z" fill="#050505"/>
<path transform="translate(2026,26)" d="m0 0 1 4-8 32-6 26h-2l1-10 12-50z" fill="#070707"/>
<path transform="translate(688,90)" d="m0 0 1 4h2l5 38 2 19v10l-2-2-8-64z" fill="#070707"/>
<path transform="translate(864,197)" d="m0 0h1l-1 21-3 32-3 3 1-18 3-34z" fill="#060606"/>
<path transform="translate(1636,310)" d="m0 0 6 1 11 6 10 9 7 9 6 13v5l-2-1-7-16-7-9-8-7-16-9z" fill="#060606"/>
<path transform="translate(1547,21)" d="m0 0h26l21 1 17 3 1 2h-7l-22-3-38-1z" fill="#010101"/>
<path transform="translate(22,626)" d="m0 0 63 1-3 2h-61z" fill="#0E0E0E"/>
<path transform="translate(1308,878)" d="m0 0h38v1l-34 1-3 1-6 16-1 1h-21l2-4 1 2 17-1 6-16z" fill="#0A0A0A"/>
<path transform="translate(1517,353)" d="m0 0h9l15 3 6 4 5 5 3 12v21h-1l-1-18-3-12-4-6-10-4-18-3z" fill="#090909"/>
<path transform="translate(1734,87)" d="m0 0 2 3 13 52-1 6-2-4-12-51z" fill="#080808"/>
<path transform="translate(1203,491)" d="m0 0 2 4-5 10-9 8-13 5-12 2h-11l-1-2 16-1 16-5 9-6 4-5z" fill="#060606"/>
<path transform="translate(1777,271)" d="m0 0 1 2h2l13 57-1 4-2-5-10-42-3-13z" fill="#080808"/>
<path transform="translate(880,19)" d="m0 0h2v9l-4 40-2 4h-1l1-18 3-30z" fill="#070707"/>
<path transform="translate(734,455)" d="m0 0h2l5 41v10l-2-3-2-11-3-25z" fill="#060606"/>
<path transform="translate(716,308)" d="m0 0h1l6 44 1 17-2 1-6-49z" fill="#070707"/>
<path transform="translate(1688,226)" d="m0 0h1l-1 11-5 21-8 19-4 7h-2l2-5 7-16 5-16 3-17z" fill="#0A0A0A"/>
<path transform="translate(1555,864)" d="m0 0 5 1 13 7-2 5-2 3h-2l2-7-13-6-8 8-8 4-3 1h-15v-1l15-2 9-4 5-4z" fill="#080808"/>
<path transform="translate(493,824)" d="m0 0h1v52l-6 10-9 7-7 3-3-1 13-7 8-9 2-7z" fill="#040404"/>
<path transform="translate(1649,323)" d="m0 0 7 6 7 8 6 13 4 12 2 10v9h-2l-3-19-6-18-7-11-8-7z" fill="#090909"/>
<path transform="translate(1545,129)" d="m0 0h8l8 5 5 6 3 9 2 11v5l-3-3-4-17-4-8-8-5-7-2z" fill="#090909"/>
<path transform="translate(145,123)" d="m0 0h16l17 2 10 4 6 7 2 7-3-3-4-6-8-5-13-3-23-1z" fill="#030303"/>
<path transform="translate(875,82)" d="m0 0h1v10l-3 33-3 2 1-18 2-22z" fill="#060606"/>
<path transform="translate(1625,306)" d="m0 0 3 1-6 4 8 3 13 5 6 4-1 2-12-6-18-5-7-2 2-2z" fill="#070707"/>
<path transform="translate(1275,610)" d="m0 0h2v2l-15 9-17 6-12 3h-3l1-3 19-5 13-5 11-6z" fill="#070707"/>
<path transform="translate(1159,116)" d="m0 0h24l9 4 6 8 1 8-1 15h-1l-1-18-4-9-6-4-14-2-13-1z" fill="#111"/>
<path transform="translate(1732,54)" d="m0 0h2l4 14 8 35v2l-3-1-11-48z" fill="#070707"/>
<path transform="translate(849,358)" d="m0 0h1l-1 17-4 37-2 1v-9l4-42z" fill="#080808"/>
<path transform="translate(1668,64)" d="m0 0h3l6 13 6 20 1 5v8l-2-2-6-24-5-13z" fill="#060606"/>
<path transform="translate(1321,229)" d="m0 0h1l-1 9-8 18-8 11-6 7-4 1 6-7 9-13 7-15z" fill="#060606"/>
<path transform="translate(1804,382)" d="m0 0h2l9 37-1 7h-1l-9-38z" fill="#060606"/>
<path transform="translate(1537,349)" d="m0 0 7 1 9 6 6 8 3 13v6h-2l-4-17-6-9-13-7z" fill="#0A0A0A"/>
<path transform="translate(952,868)" d="m0 0 2 1-3 3-10 6 4 6 7 6 8 4 7 2v2l-9-2-8-4-7-6-5-7 1-3z" fill="#080808"/>
<path transform="translate(1732,848)" d="m0 0 4 2 9 11 12 13 7 8 3 5-4-2-14-15-9-11-8-9z" fill="#070707"/>
<path transform="translate(1365,879)" d="m0 0 3 1 6 16v2h-22l-2-4v-5l2 3 1 3h17l-5-14z" fill="#090909"/>
<path transform="translate(753,612)" d="m0 0h2l2 15h35v1l-10 1h-27l-2-7z" fill="#0B0B0B"/>
<path transform="translate(748,569)" d="m0 0h2l4 36v7l-2 2-4-33z" fill="#060606"/>
<path transform="translate(1772,222)" d="m0 0h2l4 15 8 34v5l-2-3-7-26-5-22z" fill="#080808"/>
<path transform="translate(983,110)" d="m0 0h1v11l-4 32-2 7h-1l1-15 4-34z" fill="#060606"/>
<path transform="translate(807,150)" d="m0 0h2l2 14 2 20v14h-1l-3-24z" fill="#060606"/>
<path transform="translate(1516,800)" d="m0 0 3 1-17 9-10 9-7 12-1-3 5-9 8-9 13-8z" fill="#080808"/>
<path transform="translate(1792,303)" d="m0 0 2 2 9 37 1 7-3-1-6-27-3-14z" fill="#080808"/>
<path transform="translate(1959,307)" d="m0 0 1 3-8 34-3 1 3-15 5-21z" fill="#060606"/>
<path transform="translate(1866,151)" d="m0 0h2l2 8 4 22v12l-2-4-6-36z" fill="#080808"/>
<path transform="translate(212,22)" d="m0 0h10l23 6 10 4-1 2-5-1-18-6-19-4z" fill="#070707"/>
<path transform="translate(1978,224)" d="m0 0h1l-1 10-7 29-3 2 3-15 6-25z" fill="#080808"/>
<path transform="translate(1684,106)" d="m0 0h1l3 20 1 17-3-1-2-21-1-11z" fill="#090909"/>
<path transform="translate(793,19)" d="m0 0 3 1 2 22v16l-2-4-3-31z" fill="#070707"/>
<path transform="translate(424,801)" d="m0 0h11l-1 59h-1v-57h-9z" fill="#010101"/>
<path transform="translate(1717,16)" d="m0 0h12v1l-10 1 7 30-1 4-2-5-6-25z" fill="#070707"/>
<path transform="translate(953,804)" d="m0 0 2 1-7 9-3 7v13l1 7-3-4-1-4v-12l4-10z" fill="#0A0A0A"/>
<path transform="translate(724,378)" d="m0 0h2l4 32v7l-2 2-4-32z" fill="#070707"/>
<path transform="translate(1196,228)" d="m0 0 1 3-4 8-8 6-2 1h-20v-1l15-1 10-4 5-8 1-3z" fill="#050505"/>
<path transform="translate(983,841)" d="m0 0 5 1 10 6 6 7 3 7v13h-1l-2-13-4-8-8-7-9-5z" fill="#070707"/>
<path transform="translate(1940,387)" d="m0 0 1 2-9 36-2 1 1-8 7-29z" fill="#080808"/>
<path transform="translate(1248,288)" d="m0 0h7v2l11 3 8 4-1 2-18-6-10-3z" fill="#060606"/>
<path transform="translate(680,19)" d="m0 0h2l3 23v8l-2 3-3-24z" fill="#060606"/>
<path transform="translate(194,507)" d="m0 0 1 2-7 8-10 5-3 1h-23v-1l18-1 13-4 8-6z" fill="#060606"/>
<path transform="translate(1657,57)" d="m0 0 5 5 9 19 4 12v7l-2-4-6-18-8-16-2-2z" fill="#090909"/>
<path transform="translate(296,569)" d="m0 0 1 3-6 10-8 10-6 6-2-1 9-10 11-17z" fill="#060606"/>
<path transform="translate(1147,522)" d="m0 0 18 1h9l-1 2-4 1h-17l-6-1z" fill="#070707"/>
<path transform="translate(1766,191)" d="m0 0h1l7 29v2l-3-1-6-23z" fill="#060606"/>
<path transform="translate(932,530)" d="m0 0h1l-1 13-2 16-2 6h-1l1-14 2-16z" fill="#090909"/>
<path transform="translate(1515,239)" d="m0 0 3 1 27 1v2h-30z" fill="#040404"/>
<path transform="translate(1548,135)" d="m0 0 5 1 5 4 5 10v6l-2 2-3-12-3-5-6-3-6-1v-1z" fill="#080808"/>
<path transform="translate(805,116)" d="m0 0h1l3 28v6h-2l-3-24z" fill="#090909"/>
<path transform="translate(986,864)" d="m0 0 3 3v7l-5 5-4 2h-12l-6-3 3-1 6 2 9-1 5-3 1-2z" fill="#060606"/>
<path transform="translate(1323,529)" d="m0 0h1l-1 10-6 18-3 7-2-1 10-30z" fill="#090909"/>
<path transform="translate(2013,108)" d="m0 0 1 4-6 25-3 3 1-8 6-23z" fill="#060606"/>
<path transform="translate(1709,852)" d="m0 0h5l10 11 11 14v3l-8-9-12-15-6-2z" fill="#090909"/>
<path transform="translate(246,615)" d="m0 0h3v2l-18 6-12 2v-2l18-5z" fill="#090909"/>
<path transform="translate(1664,277)" d="m0 0 2 1-7 10-8 8-6 4-2-1 5-5 8-7 7-8z" fill="#070707"/>
<path transform="translate(1748,146)" d="m0 0h2l5 21v5l-3-3-4-17z" fill="#050505"/>
<path transform="translate(1943,399)" d="m0 0h1l-1 10-4 18h-2l1-10 4-17z" fill="#070707"/>
<path transform="translate(1883,163)" d="m0 0 1 3-4 25-2 2v-10l3-18z" fill="#0B0B0B"/>
<path transform="translate(1344,818)" d="m0 0 3 3 9 26 1 4-3-1-10-30z" fill="#090909"/>
<path transform="translate(739,503)" d="m0 0 1 3h2l2 15v8l-2 2-3-23z" fill="#080808"/>
<path transform="translate(731,432)" d="m0 0h2l2 15v8l-2 4-2-16z" fill="#131313"/>
<path transform="translate(2026,26)" d="m0 0 1 4-6 21-2 1 1-8 4-16z" fill="#060606"/>
<path transform="translate(1314,230)" d="m0 0 1 3-5 14-4 7-3 1 2-5 6-14 2-5z" fill="#070707"/>
<path transform="translate(1907,17)" d="m0 0 1 3-3 21-3 3 1-11 2-13z" fill="#080808"/>
<path transform="translate(637,880)" d="m0 0h31v12h-1l-1-9-29-2z" fill="#010101"/>
<path transform="translate(1681,257)" d="m0 0 1 4-8 18-3 5h-2l2-5 7-16z" fill="#070707"/>
<path transform="translate(1503,831)" d="m0 0 1 3-3 9-1 16-2-3v-14l4-10z" fill="#070707"/>
<path transform="translate(688,90)" d="m0 0 1 4h2l2 16v8h-2l-3-23z" fill="#090909"/>
<path transform="translate(1896,84)" d="m0 0 1 4-4 21-2 1 1-11 2-13z" fill="#080808"/>
<path transform="translate(1949,376)" d="m0 0h1l-1 9-4 16-2-2 2-11 3-11z" fill="#090909"/>
<path transform="translate(1562,234)" d="m0 0h2l-2 5-7 7-7 3-4-1 11-6z" fill="#090909"/>
<path transform="translate(1744,105)" d="m0 0h2l5 18v3l-3-1-4-16z" fill="#050505"/>
<path transform="translate(1732,54)" d="m0 0h2l4 14 2 12h-2l-6-24z" fill="#080808"/>
<path transform="translate(1305,832)" d="m0 0 1 2-9 25h-2l3-11 5-14z" fill="#070707"/>
<path transform="translate(965,799)" d="m0 0h12l3 2-15 1-9 4-2-1 3-3z" fill="#050505"/>
<path transform="translate(1734,87)" d="m0 0 2 3 5 19v5h-2l-5-21z" fill="#070707"/>
<path transform="translate(1549,363)" d="m0 0 3 2 3 12v21h-1l-1-18-3-12z" fill="#040404"/>
<path transform="translate(880,19)" d="m0 0h2v9l-2 12-2 1 1-17z" fill="#0B0B0B"/>
<path transform="translate(1582,16)" d="m0 0h17l12 2v1h-13l-16-1z" fill="#171717"/>
<path transform="translate(1216,629)" d="m0 0h8l-1 2-3 1h-20l1-2z" fill="#030303"/>
<path transform="translate(1760,172)" d="m0 0h2l4 15v7l-2-1-4-17z" fill="#050505"/>
<path transform="translate(1891,153)" d="m0 0h1l-1 13-2 12h-2l1-11 2-13z" fill="#090909"/>
<path transform="translate(1322,372)" d="m0 0h2l2 13v7l-2 4-2-16z" fill="#070707"/>
<path transform="translate(871,126)" d="m0 0h1l-1 18-2 4h-1l1-18z" fill="#060606"/>
<path transform="translate(1324,128)" d="m0 0h2l1 4v21l-2-3z" fill="#050505"/>
<path transform="translate(1321,510)" d="m0 0 1 3-4 17-2 1 1-10 2-9z" fill="#060606"/>
<path transform="translate(1540,820)" d="m0 0 6 2 8 7 4 2 6-3 2 1-9 5-3-1-7-8-7-4z" fill="#090909"/>
<path transform="translate(1317,120)" d="m0 0h2l1 8v15h-1l-2-10z" fill="#040404"/>
<path transform="translate(2018,86)" d="m0 0h1l-1 9-3 13h-2l1-9 3-12z" fill="#080808"/>
<path transform="translate(1221,23)" d="m0 0 10 1 7 2v2l-24-3v-1z" fill="#0A0A0A"/>
<path transform="translate(1308,878)" d="m0 0h38v1l-34 1-4 1z" fill="#030303"/>
<path transform="translate(1291,277)" d="m0 0h2v2l-13 8-6 2-1-2 14-7z" fill="#070707"/>
<path transform="translate(1798,358)" d="m0 0h2l4 16-1 5-2-4-3-13z" fill="#080808"/>
<path transform="translate(1887,178)" d="m0 0h1l-1 12-2 8-2 3 1-11 2-11z" fill="#060606"/>
<path transform="translate(1244,624)" d="m0 0 5 1-4 2-12 3h-3l1-3z" fill="#080808"/>
<path transform="translate(746,553)" d="m0 0h2l1 7v9l-2 4-1-8z" fill="#0C0C0C"/>
<path transform="translate(1959,334)" d="m0 0h1l-1 8-3 13-2-2 2-11z" fill="#080808"/>
<path transform="translate(924,594)" d="m0 0h1l-1 12-1 10-2-4 1-14z" fill="#151515"/>
<path transform="translate(1189,518)" d="m0 0m-2 1 4 2-9 3-9 1 3-3z" fill="#080808"/>
<path transform="translate(921,612)" d="m0 0h1v12l-1 4h-5l2-2 2-13z" fill="#040404"/>
<path transform="translate(734,455)" d="m0 0h2l1 16-2 4-1-8z" fill="#070707"/>
<path transform="translate(986,91)" d="m0 0h1l-1 13-1 9-2-3 1-14z" fill="#090909"/>
<path transform="translate(795,38)" d="m0 0h2l1 4v16l-2-4z" fill="#040404"/>
<path transform="translate(1481,860)" d="m0 0h2l4 11 5 7-1 3-6-9-4-10z" fill="#090909"/>
<path transform="translate(953,804)" d="m0 0 2 1-7 9-2 4-3 1 2-6 7-8z" fill="#080808"/>
<path transform="translate(1675,97)" d="m0 0 2 3 2 10v7h-2l-2-12z" fill="#070707"/>
<path transform="translate(1597,23)" d="m0 0 9 1 6 2v1h-7l-15-2v-1z" fill="#090909"/>
<path transform="translate(1231,19)" d="m0 0h11l7 2-1 2-9-1-8-2z" fill="#0D0D0D"/>
<path transform="translate(1302,257)" d="m0 0v3l-8 9-6 3v-2l8-7 5-5z" fill="#070707"/>
<path transform="translate(2015,71)" d="m0 0 1 4-3 13h-2l1-10z" fill="#060606"/>
<path transform="translate(804,879)" d="m0 0h15l-4 3h-10l-2-2z" fill="#242424"/>
<path transform="translate(434,864)" d="m0 0 2 3 3 6 6 5 3 3-6-2-6-5-2-5z" fill="#080808"/>
<path transform="translate(1516,800)" d="m0 0 3 1-15 8-2-1 4-4z" fill="#090909"/>
<path transform="translate(1293,583)" d="m0 0h2l-2 5-5 6-4 3-2-1 8-9z" fill="#080808"/>
<path transform="translate(687,75)" d="m0 0h2l1 10v9l-2-4-1-3z" fill="#040404"/>
<path transform="translate(680,19)" d="m0 0h2l1 7v8l-2 3-1-8z" fill="#0E0E0E"/>
<path transform="translate(751,596)" d="m0 0h2l1 16-2 2-1-8z" fill="#070707"/>
<path transform="translate(738,489)" d="m0 0h2l1 7v10l-2-3-1-3z" fill="#030303"/>
<path transform="translate(1517,353)" d="m0 0h9l7 1 1 2h-11l-6-2z" fill="#050505"/>
<path transform="translate(802,103)" d="m0 0h2l1 4v15h-1l-2-14z" fill="#050505"/>
<path transform="translate(241,28)" d="m0 0 7 1 7 3-1 2-5-1-8-3z" fill="#060606"/>
<path transform="translate(977,799)" d="m0 0 7 1 9 4-1 2-12-4v-2z" fill="#0A0A0A"/>
<path transform="translate(1766,191)" d="m0 0h1l3 15-3-1-2-7z" fill="#070707"/>
<path transform="translate(987,78)" d="m0 0h1v10l-2 7h-1v-9l1-7z" fill="#040404"/>
<path transform="translate(1309,818)" d="m0 0h2l-1 5-4 9-2 1 3-10z" fill="#080808"/>
<path transform="translate(925,581)" d="m0 0h1v10l-2 6h-1v-8l1-7z" fill="#040404"/>
<path transform="translate(1326,468)" d="m0 0h1v10l-2 4h-1v-9z" fill="#0E0E0E"/>
<path transform="translate(1362,866)" d="m0 0 2 3 3 10-3-1-3-10z" fill="#080808"/>
<path transform="translate(1744,801)" d="m0 0 2 1-9 11h-3l9-11z" fill="#080808"/>
<path transform="translate(246,615)" d="m0 0h3v2l-11 4-4-1 7-3z" fill="#080808"/>
<path transform="translate(187,129)" d="m0 0 5 4 4 8-1 2-6-9-4-4z" fill="#090909"/>
<path transform="translate(1298,63)" d="m0 0 4 4 4 7v3h-2l-6-11z" fill="#060606"/>
<path transform="translate(1299,587)" d="m0 0 1 2-7 9-3 1 2-4z" fill="#060606"/>
<path transform="translate(933,518)" d="m0 0h1v9l-2 7h-1v-8l1-7z" fill="#050505"/>
<path transform="translate(1953,332)" d="m0 0 1 4-2 8-3 1 2-11z" fill="#070707"/>
<path transform="translate(1305,326)" d="m0 0 3 1 5 10-1 3-2-3-5-9z" fill="#080808"/>
<path transform="translate(1321,229)" d="m0 0h1l-1 9-3 7-2-1 3-9z" fill="#070707"/>
<path transform="translate(994,891)" d="m0 0h2v2l-8 4-7 1 4-3z" fill="#090909"/>
<path transform="translate(286,585)" d="m0 0 1 2-7 8-3 3-2-1z" fill="#040404"/>
<path transform="translate(1198,217)" d="m0 0h1l-1 11-3 1 1-10z" fill="#171717"/>
<path transform="translate(1686,132)" d="m0 0h2l1 4v7l-3-1z" fill="#070707"/>
<path transform="translate(872,115)" d="m0 0h1v10l-3 2v-8z" fill="#0F0F0F"/>
<path transform="translate(961,822)" d="m0 0h1l3 9 6 5-2 1-6-4-2-4z" fill="#080808"/>
<path transform="translate(1537,349)" d="m0 0 7 1 5 3v2l-9-3z" fill="#080808"/>
<path transform="translate(1203,223)" d="m0 0h1v7l-3 8-2-1 3-10z" fill="#080808"/>
<path transform="translate(864,197)" d="m0 0h1v9l-3 3v-8z" fill="#070707"/>
<path transform="translate(1839,27)" d="m0 0 1 4h2l1 12-2-3-2-8z" fill="#090909"/>
<path transform="translate(929,551)" d="m0 0h1v8l-2 6h-1l1-13z" fill="#050505"/>
<path transform="translate(1264,293)" d="m0 0 9 3v3l-11-4z" fill="#080808"/>
<path transform="translate(1871,179)" d="m0 0h2l1 2v12l-2-4z" fill="#040404"/>
<path transform="translate(1887,139)" d="m0 0 1 4-2 8-2 1 1-10z" fill="#060606"/>
<path transform="translate(876,71)" d="m0 0h1v8l-2 4h-1v-8z" fill="#101010"/>
<path transform="translate(798,52)" d="m0 0h1l1 15h-2l-1-9z" fill="#0B0B0B"/>
</svg>
